HIERARCHY
ROOT Hips
{
	OFFSET -14.64140 90.27770 -84.91600
	CHANNELS 6 Xposition Yposition Zposition Zrotation Xrotation Yrotation
	JOINT Spine
	{
		OFFSET 0.00000 13.20850 -1.60436
		CHANNELS 3 Zrotation Xrotation Yrotation
		JOINT Spine1
		{
			OFFSET 0.00000 8.61716 0.00000
			CHANNELS 3 Zrotation Xrotation Yrotation
			JOINT Spine2
			{
				OFFSET 0.00000 8.61717 0.00000
				CHANNELS 3 Zrotation Xrotation Yrotation
				JOINT Spine3
				{
					OFFSET 0.00000 8.61717 0.00000
					CHANNELS 3 Zrotation Xrotation Yrotation
					JOINT Neck
					{
						OFFSET 0.00000 11.07920 1.10792
						CHANNELS 3 Zrotation Xrotation Yrotation
						JOINT Neck1
						{
							OFFSET 0.00000 7.08032 0.00000
							CHANNELS 3 Zrotation Xrotation Yrotation
							JOINT Head
							{
								OFFSET 0.00000 7.08031 0.00000
								CHANNELS 3 Zrotation Xrotation Yrotation
								End site
								{
									OFFSET 0.00000 0.00000 0.00000
								}
							}
						}
					}
					JOINT RightShoulder
					{
						OFFSET -0.01000 7.91373 5.19711
						CHANNELS 3 Zrotation Xrotation Yrotation
						JOINT RightArm
						{
							OFFSET -18.41580 0.00000 0.00000
							CHANNELS 3 Zrotation Xrotation Yrotation
							JOINT RightForeArm
							{
								OFFSET -29.11090 0.00000 0.00000
								CHANNELS 3 Zrotation Xrotation Yrotation
								JOINT RightHand
								{
									OFFSET -24.65040 0.00000 0.00000
									CHANNELS 3 Zrotation Xrotation Yrotation
									JOINT RightHandThumb1
									{
										OFFSET -5.35114 -0.85590 3.97906
										CHANNELS 3 Zrotation Xrotation Yrotation
										JOINT RightHandThumb2
										{
											OFFSET -4.52789 0.00000 0.00000
											CHANNELS 3 Zrotation Xrotation Yrotation
											JOINT RightHandThumb3
											{
												OFFSET -2.46976 0.00000 0.00000
												CHANNELS 3 Zrotation Xrotation Yrotation
												End site
												{
													OFFSET 0.00000 0.00000 0.00000
												}
											}
										}
									}
									JOINT RightHandIndex1
									{
										OFFSET -14.26970 0.00000 2.88139
										CHANNELS 3 Zrotation Xrotation Yrotation
										JOINT RightHandIndex2
										{
											OFFSET -5.48836 0.00000 0.00000
											CHANNELS 3 Zrotation Xrotation Yrotation
											JOINT RightHandIndex3
											{
												OFFSET -3.01859 0.00000 0.00000
												CHANNELS 3 Zrotation Xrotation Yrotation
												End site
												{
													OFFSET 0.00000 0.00000 0.00000
												}
											}
										}
									}
									JOINT RightHandMiddle1
									{
										OFFSET -14.26970 0.00000 -0.09147
										CHANNELS 3 Zrotation Xrotation Yrotation
										JOINT RightHandMiddle2
										{
											OFFSET -6.17441 0.00000 0.00000
											CHANNELS 3 Zrotation Xrotation Yrotation
											JOINT RightHandMiddle3
											{
												OFFSET -3.56743 0.00000 0.00000
												CHANNELS 3 Zrotation Xrotation Yrotation
												End site
												{
													OFFSET 0.00000 0.00000 0.00000
												}
											}
										}
									}
									JOINT RightHandRing1
									{
										OFFSET -12.69180 0.00000 -3.06433
										CHANNELS 3 Zrotation Xrotation Yrotation
										JOINT RightHandRing2
										{
											OFFSET -5.62556 0.00000 0.00000
											CHANNELS 3 Zrotation Xrotation Yrotation
											JOINT RightHandRing3
											{
												OFFSET -3.56744 0.00000 0.00000
												CHANNELS 3 Zrotation Xrotation Yrotation
												End site
												{
													OFFSET 0.00000 0.00000 0.00000
												}
											}
										}
									}
									JOINT RightHandPinky1
									{
										OFFSET -11.11390 0.00000 -6.03719
										CHANNELS 3 Zrotation Xrotation Yrotation
										JOINT RightHandPinky2
										{
											OFFSET -4.52789 0.00000 0.00000
											CHANNELS 3 Zrotation Xrotation Yrotation
											JOINT RightHandPinky3
											{
												OFFSET -2.46976 0.00000 0.00000
												CHANNELS 3 Zrotation Xrotation Yrotation
												End site
												{
													OFFSET 0.00000 0.00000 0.00000
												}
											}
										}
									}
								}
							}
						}
					}
					JOINT LeftShoulder
					{
						OFFSET 0.01000 7.91373 5.19711
						CHANNELS 3 Zrotation Xrotation Yrotation
						JOINT LeftArm
						{
							OFFSET 18.41580 0.00000 0.00000
							CHANNELS 3 Zrotation Xrotation Yrotation
							JOINT LeftForeArm
							{
								OFFSET 29.11090 0.00000 0.00000
								CHANNELS 3 Zrotation Xrotation Yrotation
								JOINT LeftHand
								{
									OFFSET 24.65040 0.00000 0.00000
									CHANNELS 3 Zrotation Xrotation Yrotation
									JOINT LeftHandThumb1
									{
										OFFSET 5.35114 -0.85590 3.97906
										CHANNELS 3 Zrotation Xrotation Yrotation
										JOINT LeftHandThumb2
										{
											OFFSET 4.52789 0.00000 0.00000
											CHANNELS 3 Zrotation Xrotation Yrotation
											JOINT LeftHandThumb3
											{
												OFFSET 2.46977 0.00000 0.00000
												CHANNELS 3 Zrotation Xrotation Yrotation
												End site
												{
													OFFSET 0.00000 0.00000 0.00000
												}
											}
										}
									}
									JOINT LeftHandIndex1
									{
										OFFSET 14.26970 0.00000 2.88139
										CHANNELS 3 Zrotation Xrotation Yrotation
										JOINT LeftHandIndex2
										{
											OFFSET 5.48836 0.00000 0.00000
											CHANNELS 3 Zrotation Xrotation Yrotation
											JOINT LeftHandIndex3
											{
												OFFSET 3.01859 0.00000 0.00000
												CHANNELS 3 Zrotation Xrotation Yrotation
												End site
												{
													OFFSET 0.00000 0.00000 0.00000
												}
											}
										}
									}
									JOINT LeftHandMiddle1
									{
										OFFSET 14.26970 0.00000 -0.09147
										CHANNELS 3 Zrotation Xrotation Yrotation
										JOINT LeftHandMiddle2
										{
											OFFSET 6.17440 0.00000 0.00000
											CHANNELS 3 Zrotation Xrotation Yrotation
											JOINT LeftHandMiddle3
											{
												OFFSET 3.56744 0.00000 0.00000
												CHANNELS 3 Zrotation Xrotation Yrotation
												End site
												{
													OFFSET 0.00000 0.00000 0.00000
												}
											}
										}
									}
									JOINT LeftHandRing1
									{
										OFFSET 12.69180 0.00000 -3.06433
										CHANNELS 3 Zrotation Xrotation Yrotation
										JOINT LeftHandRing2
										{
											OFFSET 5.62556 0.00000 0.00000
											CHANNELS 3 Zrotation Xrotation Yrotation
											JOINT LeftHandRing3
											{
												OFFSET 3.56744 0.00000 0.00000
												CHANNELS 3 Zrotation Xrotation Yrotation
												End site
												{
													OFFSET 0.00000 0.00000 0.00000
												}
											}
										}
									}
									JOINT LeftHandPinky1
									{
										OFFSET 11.11390 0.00000 -6.03719
										CHANNELS 3 Zrotation Xrotation Yrotation
										JOINT LeftHandPinky2
										{
											OFFSET 4.52789 0.00000 0.00000
											CHANNELS 3 Zrotation Xrotation Yrotation
											JOINT LeftHandPinky3
											{
												OFFSET 2.46976 0.00000 0.00000
												CHANNELS 3 Zrotation Xrotation Yrotation
												End site
												{
													OFFSET 0.00000 0.00000 0.00000
												}
											}
										}
									}
								}
							}
						}
					}
					JOINT pCube4
					{
						OFFSET 0.00000 10.91090 1.10792
						CHANNELS 3 Zrotation Xrotation Yrotation
						End site
						{
							OFFSET 0.00000 0.00000 0.00000
						}
					}
				}
			}
		}
	}
	JOINT RightUpLeg
	{
		OFFSET -9.98441 0.00000 0.00000
		CHANNELS 3 Zrotation Xrotation Yrotation
		JOINT RightLeg
		{
			OFFSET 0.00000 -42.11790 0.00000
			CHANNELS 3 Zrotation Xrotation Yrotation
			JOINT RightFoot
			{
				OFFSET 0.00000 -45.00020 -0.00001
				CHANNELS 3 Zrotation Xrotation Yrotation
				JOINT RightForeFoot
				{
					OFFSET 0.00000 -3.74820 0.00000
					CHANNELS 3 Zrotation Xrotation Yrotation
					JOINT RightToeBase
					{
						OFFSET 0.00000 0.06325 14.43120
						CHANNELS 3 Zrotation Xrotation Yrotation
						End site
						{
							OFFSET 0.00000 0.00000 0.00000
						}
					}
				}
			}
		}
	}
	JOINT LeftUpLeg
	{
		OFFSET 9.98441 0.00000 0.00000
		CHANNELS 3 Zrotation Xrotation Yrotation
		JOINT LeftLeg
		{
			OFFSET 0.00000 -42.11800 0.00000
			CHANNELS 3 Zrotation Xrotation Yrotation
			JOINT LeftFoot
			{
				OFFSET 0.00000 -45.00070 0.00000
				CHANNELS 3 Zrotation Xrotation Yrotation
				JOINT LeftForeFoot
				{
					OFFSET 0.00000 -3.74824 0.00000
					CHANNELS 3 Zrotation Xrotation Yrotation
					JOINT LeftToeBase
					{
						OFFSET 0.00000 0.06325 14.43110
						CHANNELS 3 Zrotation Xrotation Yrotation
						End site
						{
							OFFSET 0.00000 0.00000 0.00000
						}
					}
				}
			}
		}
	}
}
MOTION
Frames: 4
Frame Time: 0.050000
0.03750532705962333 0.025120791459066507 -0.01749530350652924 0.029703331642674958 0.0009989994029922591 0.04295881406102689 2.0668470105318897 1.2518268795319294 -1.8662537902002965 -0.8510833075526583 3.558954602077821 0.42111517545399035 -1.1854070494262705 -1.5167303847816869 0.25147215849453597 0.475739000538603 -0.12880408495692663 -0.5130115899300779 1.8180121231328248 13.720546362433788 -5.222162680177288 0.3568398485312581 0.56170051930868 -12.490836578116244 2.0987058551652664 -14.976717709133737 -1.065903868969313 -11.865206218736942 3.707761691905794 -17.238200345695045 72.31677463236072 -14.979976887328247 22.887422377779725 15.106610529248298 2.160313674860292 94.2001656850118 2.408984491678562 -0.06382173288636295 -0.2735415811381955 4.509511020686363 -0.16180475734512165 -1.6404734864245334 -0.014312723190736839 -0.02877080119074453 -56.21955894415671 0.019621914872345457 -0.04705881288732193 -56.23090094527283 -38.783140368262465 0.04382326766901537 -0.017283573543552654 -0.006885024196275721 0.016315829967610437 -0.0384355052439565 0.005423449264300694 0.009974362010255767 -0.014393388241432018 -36.675618177168495 -0.0310467435189584 0.033831778445999786 0.04121468188135635 -0.02604676522093216 0.0382651164859063 0.033224342275838925 0.004107262721254815 0.04276213965538304 -19.802177746998485 0.04115375406267252 -0.019428947435552995 0.004871148459177227 -0.002031739504007288 -0.017891987841222503 0.02675289955698813 -0.014618905864264686 -0.004248821664516286 24.024364859311657 0.019614148467813595 0.024062426519743572 28.89455230440553 -0.011256521209751989 -0.031775334062270656 28.88643565221732 -0.007519665679483764 0.016166493223792443 7.67178256609399 1.9097664861240666 13.361703924134012 -71.31723491608685 21.988065053426787 -11.466763881051573 -16.468841985744447 3.036754950378974 -66.04861562335599 -11.947439806656803 -1.8814293102729576 0.6252999705358157 -0.467163616190618 0.10688599465955123 -8.136362645195106 -0.007359498551140527 -0.003483729113426108 44.56440063104132 -0.007917177279181169 -0.01196127596680313 44.60703200935613 12.490497854667783 -0.005342861103394187 -0.0246299423141195 0.033181008393995806 -0.02631871791367665 -0.011428431645765942 0.039833718173982235 -0.048772449366102456 -0.03338640438924857 11.065297943031556 0.015829194891491236 0.02394256628368722 0.007367967033383959 0.002359524706789642 -0.04682821203854082 0.024362166472774765 -0.0011782009819421022 0.0499349268874178 4.777870725102795 -0.04753324658950435 -0.005371779590188034 0.045517242305123086 0.013195640975852707 -0.04902990446965931 -0.013334462782349822 -0.013070981555181393 -0.015634697833446478 -5.565059059029852 -0.02942102093639477 -0.020175477143964605 -6.707277361604428 -0.005483521210280337 -0.00997804974332185 -6.708173466450482 -0.005696792328334373 -0.01746837617602586 0.03408444667801782 0.04900519139121866 -0.015126105029951662 8.048858988408602 3.4545222208199737 -19.244416605526894 0.011610425376203071 10.40097813914357 0.0029889778034867896 -5.6307346955368365 -15.671573244975894 3.148654501340814 0.031051125297242493 0.0321277766057036 0.024627668605849744 -0.04350767724344823 4.6502334804079855 -0.03614633735836486 12.418052510154421 -8.24958283705045 6.865273619515809 -0.04471415776623303 46.386305701841366 0.0016287884446151315 -4.294903572304535 -14.706766019457607 -3.812392821642488 0.031752621267631224 0.011102747418309888 -0.003785060930260112 -0.021134980977060146 -10.722633412090993 0.035928069210278656 
-0.01918616812743526 -0.04446514484310457 -0.025734799929942154 0.0070759865969395215 -0.02914344632649653 0.01429668579433651 2.3377655502027364 1.2039248730424896 -1.9082475281770455 -0.9301033795152472 3.55665855010857 0.4005042680371906 -1.1997451033059732 -1.5077970101633265 0.4713057196912784 0.450314931392658 -0.16329752723468255 -0.4553142181208814 1.8863595894457648 13.752921509328047 -5.350395852348393 0.3997122706298343 0.583773265852049 -12.853209521544247 2.1432408597949255 -14.936404546726061 -1.0535555016519345 -12.247275043525951 3.831858748095704 -17.493763667923645 71.75795074406572 -14.858627705149052 23.694881637145436 12.56745446451619 1.8724831247830005 92.93300317235936 2.34831271096257 -0.08381647140099444 -0.18580433663168452 4.519213135887344 -0.09603112756776269 -1.6113334194685793 0.023066851809321186 -0.007425392309093956 -56.25313289679134 -0.00982729871655893 0.0017881933532846992 -56.22017619487324 -38.77682836969671 -0.0326623118933009 0.028971100856028716 0.028052327578439073 0.034053864196981684 0.005301652403327604 -0.0178302401109513 -0.00375388976562118 -0.01445387812422353 -36.661130650893874 -0.04873541626034038 0.02685016774191226 -0.033154630778275324 0.014869673712828525 -0.0267639114685944 -0.03096929493246057 0.016355910126670068 -0.023687868395397035 -19.78708434679924 -0.04451999002016268 -0.04882627501812614 -0.020352349261703314 0.021132218727975514 -0.04895198691789018 0.030759057041652972 0.042342222084069264 0.01666145250986094 24.070057239049227 0.021267222358235416 -0.027938362362996266 28.8537558707803 0.016041052443163718 0.0037522508514857547 28.86287050362559 -0.028724087786427502 -0.029041684118366634 7.559889950193886 1.8498053521681568 13.538045121614958 -71.35872175981176 21.938477526237396 -10.525276884487006 -9.28898099442247 0.021323840771983835 -59.55146505650431 -12.412362810323412 -1.419056411593439 0.7366469992933685 -0.493678039399017 0.041808767195841645 -8.155990178235758 -0.01603889401757149 -0.03100020987832962 44.61075154462832 0.02870116329077161 -0.03095500962415145 44.55478066633689 12.45991637396591 -0.019007692025914888 0.007886015355845603 -0.030116167065592146 0.0118795949852863 0.03563639805672903 -0.0027276657137806216 0.034885011169322695 -0.020305199302269268 11.066073018180415 -0.03197506451372993 -0.04016851206826417 0.026633184534332433 0.026404488301698243 -0.00823758246583693 -0.019950128867475533 0.007984021650213217 -0.03847930653745397 4.754837912433005 -0.007701260787952142 0.0025401276585939395 -0.03130918072771617 0.011639806482413346 -0.03646997974762655 0.0055095369452785765 0.024526113594531784 -0.041560535730336905 -5.555064228780097 0.014674898415729587 0.0029994043345589793 -6.693445273497158 0.03222546845560309 0.012890191570109318 -6.706324487636473 0.04541684811131879 -0.037034906029673714 0.039372864109270475 -0.04636440465011075 0.004243930318806883 8.013554098043903 3.5141964119548756 -19.25312885768104 -0.011725404425405157 10.4429337528795 0.05699756400878332 -5.59655186735816 -15.649382725080287 3.2216564934623113 0.021886183982935913 0.01937071512344977 -0.022511709624801354 -0.04792029458554307 4.737871446706122 -0.04254507699895078 12.428832369483272 -8.276282377965666 6.9277732408465384 -0.016080516523778364 46.336932841025316 0.025025453534797085 -4.359690625432535 -14.787175159634817 -3.8727265792579626 -0.04598659637496513 -0.033559872950932025 -0.04385733124680812 0.0376294695872954 -10.708567850056756 -0.03948601048670578 
0.028131375745070294 -0.00542115661049564 -0.031575298833395625 -0.006229209060956428 0.029799105892967404 0.01130346771071862 2.7415159918681065 1.2422600703947715 -1.9065403263313914 -0.9271276435331676 3.529085900427723 0.4472874750926546 -1.1386841841404198 -1.5035837599090622 0.8107012285666606 0.43047234630813225 -0.1758347842825493 -0.3937837204359524 2.0080070073159857 13.775393590873534 -5.447336521744273 0.30136161176145015 0.5916440770145645 -13.271679651846682 2.124669292595477 -15.024844121805232 -1.0700252493215128 -12.633201306409902 3.90694272938258 -17.680156306338652 71.49831544055043 -14.943186026595857 24.378902843651964 10.080970835150513 1.4646066979077574 91.74975347944222 2.132217626185522 -0.027811394023843403 -0.21236386407285932 4.556486032370335 -0.12244404868990812 -1.6029881768285847 -0.009011339204001946 -0.02659820671689942 -56.21783293362108 0.028679087592831123 -0.03493344873977042 -56.225966822738656 -38.75520088137303 -0.027934122148395617 0.03105187205767474 -0.035182813957057246 0.03344119663338846 -0.012465037162194803 -0.015085446499430277 -0.0028542212777394565 -0.005974332781310732 -36.67226833545559 -0.011855361483526096 0.02341057046158352 0.0020904566785161223 -0.0037092876557370154 -0.022850041796983467 -0.01437155755403165 0.041597130736608326 -0.024552515806495725 -19.728373643293477 -0.01770959323616692 -0.018749638523274586 0.04400231350681702 -0.009159036930389802 -0.042152934996214246 0.00783630281083462 0.015549580152132408 -0.0025624429143929826 24.026072915039133 0.00688346989245732 0.024351279756801562 28.831870231450402 0.019649365358475317 -0.017729987455945385 28.856692653969137 -0.025571496642718062 -0.02749358989331802 7.502246495689816 1.8548693066559443 13.773655088956115 -71.59251657017009 21.60917545473448 -9.532562539512545 -3.361321284673682 -2.8332919697327394 -53.77130241067692 -12.946903738688011 -0.988055597486031 0.7520114894791056 -0.4768473097699228 0.052720025312550156 -8.163340295179303 -0.0005145414274983379 0.004615161862744564 44.58645188290022 0.03341528110718519 0.027223445137992075 44.598970712345675 12.454452715519432 0.04519059927261447 0.004222360676524625 -0.02167373860863959 0.017210110309893258 -0.022553021012853693 -0.03416343118714522 -0.00932667418107867 -0.02326029596967233 11.125863885512933 0.017984346070909155 -0.019920824809850215 -0.00434795739857826 0.021504507685241262 0.0002807972171602691 -0.014067414441868277 -0.008827923047263306 0.019473914266186654 4.764488655915127 0.0062988427686700346 -0.00013663439960783882 0.03866904747753803 0.024782007946821363 -0.006142307488504804 0.032448386920671916 0.04722445924944313 0.01528925279537071 -5.649511682552948 -0.0033001496514206215 0.009313747287746369 -6.678401370475653 0.03707523905145016 0.01344934135388989 -6.732344446827539 0.04321597038793498 0.03202469534987539 0.018839207321152397 0.0208846284405599 0.03941670611727356 8.078054167298285 3.4646154582757385 -19.220552626251166 -0.029909248783960406 10.410524920307637 0.051330518323338487 -5.640671372215593 -15.681285398005175 3.2405458069218684 0.003156554029948727 0.041519786430641935 0.01196465370451827 -0.01405624542481016 4.6839746347315385 0.03027588060961995 12.502352866600512 -8.28766217169885 6.880103806506717 0.010855498520330322 46.352217219199744 0.02350639152176108 -4.331213823855467 -14.766183679235912 -3.8179742016926257 -0.016220334320597673 0.03085208895643927 0.016946052206918825 -0.009694557671361534 -10.75705939035653 -0.03482387985341457 
-0.036238260950741584 -0.03219087866233782 -0.035587826932274184 -0.04378249506096967 -0.04762956644250019 -0.02324585152495401 3.3254075094017077 1.3197239989589034 -1.9998333724733057 -0.8827531482514702 3.5671469758029066 0.38220621845134395 -1.1209842175792075 -1.444531494687571 1.117067007913191 0.40373017921541193 -0.23999598996908908 -0.29386303523696006 2.0363910852623985 13.751578241938335 -5.631931451332158 0.3051962319257799 0.4941506431494379 -13.711289316753788 2.1773148527182515 -15.12485306598661 -1.1340126592249573 -13.164220588265268 4.037256226727631 -17.965457108817947 71.71899357083916 -16.0298938549066 25.06601009374198 8.980212461395649 1.239487613434772 90.83872922587373 1.8538936255962017 -0.06458573942474488 -0.09838507620533385 4.554904385759623 -0.10606481594227174 -1.5632714820447393 0.025823659815946625 0.03461500092883273 -56.227915124658594 0.03129274789605049 -0.001193174756662744 -56.20100103123818 -38.77926028716457 0.03465767640904794 0.009358723854664951 -0.03834531608546668 -0.008532042283915775 -0.01363340179827388 -0.03857165834199848 -0.01499508879522194 -0.006224241121110677 -36.70336637719759 0.012475176052643292 -0.018958975985127136 -0.038865178333501275 0.015174451415877758 -0.029360835348622275 -0.009519700660599182 -0.000273598671519835 -0.013240064875301084 -19.719158976284703 -0.005315815832476536 0.021739520766550568 0.02541960228051796 0.017850623273078025 0.04050941244151797 -0.038178528110839605 -0.0028080880452023183 -0.027436308901817075 24.056436471004215 -0.020091317418466887 0.014293755388509334 28.89773194965516 0.019001821494969595 0.021431078647412817 28.84697044002186 0.0010446155294305999 0.031088925633915573 7.637996716580567 1.8735330637160341 14.028795974938218 -72.03735033713274 20.760285428422186 -8.973799740500908 -0.8748426620997749 -3.6783480305741976 -49.977169802877405 -13.617695241104245 -0.8144689170015933 0.7663459017279994 -0.5233012103290539 0.10946317389466906 -8.147628346275413 0.04627136156040577 0.006169117251400636 44.5274217876706 -0.02627285375331261 -0.03996876116648539 44.61555451182773 12.501110503948683 0.02393537672159556 -0.0223836906951172 0.035744591626680214 -0.021827181667745787 -0.021864394649607245 -0.00847195361008722 0.005548922484641286 0.011443183585723224 11.072051425534852 0.012957269871606829 0.048288619171767654 -0.033679996418774984 -0.03902528640737991 0.008607894683321859 -0.022634273539305912 -0.03347533728964523 0.020427034804339498 4.797924909246538 -0.00747144452395228 0.039653977642104016 0.008193387996188317 0.04259842939029845 0.0014735248795267146 0.008633794700566154 -0.03829319561869179 0.017572410511109107 -5.592270106269338 -0.04919848261512437 -0.046471503787915126 -6.724114606730671 -0.016587535156302458 -0.03346196119327313 -6.7679017061615605 -0.018626155379754795 0.02073555777493169 0.02001642798122176 -0.018142147557640233 0.04907910680834263 8.047476181651414 3.5346847575847495 -19.26099948941678 0.03495915495412989 10.430362953686766 0.05625010698524316 -5.595272626318881 -15.65827679501478 3.2305513664932937 0.039516355868775895 -0.01839644662231766 -0.018079592682558866 -0.003218993414866756 4.651585736817516 -0.00514406020950746 12.42438867377404 -8.261183406767403 6.869969385482211 -0.01403391788372055 46.33422512006745 0.03463924422342515 -4.358661380424066 -14.731116896561224 -3.788041087550555 0.0011137038484614887 -0.0023361591094709167 0.047758933083522866 -0.019345583837057097 -10.747448432461102 -0.022721493019261206 
